<?xml version="1.0" standalone="no"?>
<!DOCTYPE svg PUBLIC "-//W3C//DTD SVG 20010904//EN"
 "http://www.w3.org/TR/2001/REC-SVG-20010904/DTD/svg10.dtd">
<svg version="1.0" xmlns="http://www.w3.org/2000/svg"
 width="1600.000000pt" height="1600.000000pt" viewBox="0 0 1600.000000 1600.000000"
 preserveAspectRatio="xMidYMid meet">

<g transform="translate(0.000000,1600.000000) scale(0.100000,-0.100000)"
fill="#000000" stroke="none">
<path d="M7460 15380 c-787 -50 -1524 -211 -2225 -485 -1890 -739 -3391 -2240
-4130 -4130 -463 -1186 -605 -2491 -409 -3765 312 -2022 1473 -3821 3199
-4955 408 -269 822 -485 1280 -670 201 -80 453 -170 460 -163 2 2 -4 74 -15
160 -184 1487 -99 3107 235 4463 213 863 514 1599 875 2135 573 851 1569 1723
2630 2302 69 37 120 68 114 68 -22 0 -286 -71 -430 -116 -1080 -335 -2113
-964 -2776 -1691 -533 -584 -842 -1125 -1162 -2036 -166 -475 -349 -1136 -472
-1705 -26 -122 -51 -222 -55 -222 -9 0 -128 184 -204 315 -371 641 -620 1357
-710 2041 -57 436 -41 934 41 1341 172 850 613 1621 1311 2293 818 787 2001
1242 3578 1376 256 21 967 30 1246 15 922 -50 1761 -218 2259 -453 168 -79
160 -58 81 -190 -280 -465 -506 -1006 -665 -1588 -120 -441 -190 -808 -336
-1753 -109 -710 -177 -1053 -276 -1396 -141 -487 -344 -896 -610 -1231 -150
-188 -454 -470 -735 -681 -802 -604 -1753 -962 -2734 -1030 -169 -12 -593 -8
-627 6 -16 7 -18 -2 -18 -96 0 -548 125 -1368 311 -2049 49 -178 152 -517 160
-524 7 -6 335 -54 474 -70 277 -32 440 -40 770 -40 519 0 922 39 1399 135
1039 207 1974 613 2836 1232 298 214 566 442 853 726 670 662 1186 1410 1557
2256 501 1144 697 2405 569 3665 -217 2143 -1385 4084 -3184 5292 -289 194
-550 344 -870 499 -824 400 -1663 628 -2615 710 -165 14 -809 20 -980 9z"/>
</g>
</svg>
